<svg width="192" height="96" viewBox="0 0 192 96" fill="none" xmlns="http://www.w3.org/2000/svg">
<path d="M183.632 50.1984C183.632 50.1984 189.718 50.6744 190.67 54.7544C190.908 55.7404 190.84 56.9304 190.33 58.3584C190.33 58.3584 190.296 58.3584 190.296 58.3924C188.154 63.5264 183.122 64.3084 177.716 64.3084C171.222 64.3084 165.272 63.1864 164.218 54.7544H172.004C172.888 58.0184 175.336 58.7324 177.716 58.7324C178.838 58.7324 180.096 58.5624 181.116 57.9844C181.83 57.6104 182.646 56.5224 182 55.6724C181.966 55.6384 181.966 55.6384 181.932 55.6044C181.49 55.1284 180.708 54.9244 180.096 54.7884C179.382 54.6184 172.548 53.6324 171.8 53.5304C171.8 53.5304 166.122 52.9864 164.932 48.8044C164.66 47.8184 164.626 46.6964 165.102 45.3704C167.244 40.2024 172.31 39.4544 177.716 39.4544C184.176 39.4544 190.126 40.5424 191.214 48.9404H183.428C182.544 45.7104 180.062 45.0304 177.716 45.0304C175.914 45.0304 174.724 45.5404 174.044 46.0844C173.5 46.5604 172.99 47.4104 173.5 48.0904C173.942 48.6684 175.2 48.9744 175.982 49.1104L183.632 50.1984Z" fill="#292929"/>
<path d="M162.328 45.5404H145.328V49.1104H160.866V54.6524H145.328V58.2224H162.328V63.7644H137.712V39.9984H162.328V45.5404Z" fill="#292929"/>
<path d="M127.651 50.1984C127.651 50.1984 133.737 50.6744 134.689 54.7544C134.927 55.7404 134.859 56.9304 134.349 58.3584C134.349 58.3584 134.315 58.3584 134.315 58.3924C132.173 63.5264 127.141 64.3084 121.735 64.3084C115.241 64.3084 109.291 63.1864 108.237 54.7544H116.023C116.907 58.0184 119.355 58.7324 121.735 58.7324C122.857 58.7324 124.115 58.5624 125.135 57.9844C125.849 57.6104 126.665 56.5224 126.019 55.6724C125.985 55.6384 125.985 55.6384 125.951 55.6044C125.509 55.1284 124.727 54.9244 124.115 54.7884C123.401 54.6184 116.567 53.6324 115.819 53.5304C115.819 53.5304 110.141 52.9864 108.951 48.8044C108.679 47.8184 108.645 46.6964 109.121 45.3704C111.263 40.2024 116.329 39.4544 121.735 39.4544C128.195 39.4544 134.145 40.5424 135.233 48.9404H127.447C126.563 45.7104 124.081 45.0304 121.735 45.0304C119.933 45.0304 118.743 45.5404 118.063 46.0844C117.519 46.5604 117.009 47.4104 117.519 48.0904C117.961 48.6684 119.219 48.9744 120.001 49.1104L127.651 50.1984Z" fill="#292929"/>
<path d="M99.1631 50.1984C99.1631 50.1984 105.249 50.6744 106.201 54.7544C106.439 55.7404 106.371 56.9304 105.861 58.3584C105.861 58.3584 105.827 58.3584 105.827 58.3924C103.685 63.5264 98.6531 64.3084 93.2471 64.3084C86.7531 64.3084 80.8031 63.1864 79.7491 54.7544H87.5351C88.4191 58.0184 90.8671 58.7324 93.2471 58.7324C94.3691 58.7324 95.6271 58.5624 96.6471 57.9844C97.3611 57.6104 98.1771 56.5224 97.5311 55.6724C97.4971 55.6384 97.4971 55.6384 97.4631 55.6044C97.0211 55.1284 96.2391 54.9244 95.6271 54.7884C94.9131 54.6184 88.0791 53.6324 87.3311 53.5304C87.3311 53.5304 81.6531 52.9864 80.4631 48.8044C80.1911 47.8184 80.1571 46.6964 80.6331 45.3704C82.7751 40.2024 87.8411 39.4544 93.2471 39.4544C99.7071 39.4544 105.657 40.5424 106.745 48.9404H98.9591C98.0751 45.7104 95.5931 45.0304 93.2471 45.0304C91.4451 45.0304 90.2551 45.5404 89.5751 46.0844C89.0311 46.5604 88.5211 47.4104 89.0311 48.0904C89.4731 48.6684 90.7311 48.9744 91.5131 49.1104L99.1631 50.1984Z" fill="#292929"/>
<path d="M71.6276 63.7644L69.8256 59.1064H60.3736L58.5716 63.7644H50.4116L59.4896 39.9984H70.7096L79.8216 63.7644H71.6276ZM62.4816 53.5644H67.7176L65.0996 46.7644L62.4816 53.5644Z" fill="#292929"/>
<path d="M50.2379 58.2224V63.7644H29.7019V39.9984H37.3179V58.2224H50.2379Z" fill="#292929"/>
<path d="M13.668 58.7324C16.048 58.7324 18.564 58.0864 19.414 54.6524H27.2C26.146 63.1524 20.162 64.3084 13.668 64.3084C6.494 64.3084 0 62.9144 0 51.8644C0 40.7804 6.494 39.4544 13.668 39.4544C20.162 39.4544 26.146 40.5764 27.2 49.1104H19.414C18.564 45.6424 16.048 45.0304 13.668 45.0304C10.744 45.0304 7.616 45.9484 7.616 51.8644C7.616 57.7804 10.744 58.7324 13.668 58.7324Z" fill="#292929"/>
<path d="M94.4238 0.00843024H104.324V15.3644C104.324 29.1364 96.8438 30.7644 87.5598 30.7644C79.1998 30.7644 72.2478 29.4444 71.0158 18.9724H81.0478C81.9278 23.0204 84.5238 23.5924 87.5598 23.5924C91.3438 23.5924 94.4238 22.7124 94.4238 15.3644V0.00843024Z" fill="#292929"/>
<path d="M59.2324 0.00843024H69.1324V15.3644C69.1324 29.1364 61.6524 30.7644 52.3684 30.7644C44.0084 30.7644 37.0564 29.4444 35.8244 18.9724H45.8564C46.7364 23.0204 49.3324 23.5924 52.3684 23.5924C56.1524 23.5924 59.2324 22.7124 59.2324 15.3644V0.00843024Z" fill="#292929"/>
<path d="M30.542 14.5284C33.006 15.8044 34.546 18.3564 34.546 21.1724V23.2844C34.546 27.3324 31.334 30.6324 27.286 30.7644H1.282V0.00843024H25.042C25.79 -0.0355692 26.582 0.0964317 27.286 0.316432C30.41 1.32843 32.522 4.23243 32.522 7.48843V9.42443C32.522 11.3164 31.818 13.1204 30.542 14.5284ZM20.906 7.18043H11.138V11.8004H20.906C20.906 11.8004 22.622 11.8004 22.622 9.46843C22.622 7.18043 20.906 7.18043 20.906 7.18043ZM22.886 23.5924C22.93 23.5924 24.646 23.5924 24.646 21.3044C24.646 18.9724 22.886 18.9724 22.886 18.9724H11.138V23.5924H22.886Z" fill="#292929"/>
<path d="M136.525 86.461C136.941 86.221 137.221 86.117 137.365 86.149C137.509 86.165 137.565 86.245 137.533 86.389C137.501 86.533 137.405 86.709 137.245 86.917C137.101 87.109 136.941 87.261 136.765 87.373C136.589 87.485 136.221 87.693 135.661 87.997C135.117 88.285 134.509 88.597 133.837 88.933C133.165 89.253 132.493 89.557 131.821 89.845C131.149 90.117 130.605 90.301 130.189 90.397C129.757 90.493 129.389 90.493 129.085 90.397C128.781 90.301 128.533 90.149 128.341 89.941C128.165 89.733 128.045 89.501 127.981 89.245C127.917 88.973 127.909 88.717 127.957 88.477C128.005 88.237 128.093 87.941 128.221 87.589C128.365 87.237 128.541 86.869 128.749 86.485C128.973 86.101 129.221 85.717 129.493 85.333C129.781 84.949 130.085 84.605 130.405 84.301C130.709 84.013 130.997 83.781 131.269 83.605C131.557 83.429 131.813 83.301 132.037 83.221C132.277 83.141 132.485 83.093 132.661 83.077C132.853 83.045 133.013 83.037 133.141 83.053C133.301 83.069 133.477 83.149 133.669 83.293C133.861 83.421 134.037 83.589 134.197 83.797C134.373 83.989 134.517 84.213 134.629 84.469C134.757 84.725 134.837 84.973 134.869 85.213C134.885 85.453 134.813 85.685 134.653 85.909C134.509 86.133 134.317 86.341 134.077 86.533C133.837 86.725 133.573 86.901 133.285 87.061C133.013 87.205 132.757 87.333 132.517 87.445C132.277 87.557 132.045 87.669 131.821 87.781C131.613 87.893 131.413 87.965 131.221 87.997C131.029 88.029 130.837 88.013 130.645 87.949C130.469 87.885 130.301 87.725 130.141 87.469C130.093 87.533 130.037 87.629 129.973 87.757C129.925 87.869 129.909 87.981 129.925 88.093C129.941 88.205 130.013 88.301 130.141 88.381C130.269 88.461 130.485 88.493 130.789 88.477C131.093 88.461 131.485 88.397 131.965 88.285C132.445 88.157 132.949 88.005 133.477 87.829C134.021 87.637 134.557 87.421 135.085 87.181C135.629 86.941 136.109 86.701 136.525 86.461ZM132.733 85.069C132.365 85.213 132.077 85.373 131.869 85.549C131.677 85.709 131.461 85.933 131.221 86.221C131.333 86.189 131.461 86.141 131.605 86.077C131.765 86.013 131.925 85.933 132.085 85.837C132.245 85.725 132.381 85.605 132.493 85.477C132.621 85.349 132.701 85.213 132.733 85.069Z" fill="#ADADAD"/>
<path d="M130.978 75.421C130.962 75.453 130.858 75.621 130.666 75.925C130.474 76.229 130.234 76.621 129.946 77.101C129.674 77.565 129.362 78.109 129.01 78.733C128.658 79.341 128.306 79.981 127.954 80.653C127.618 81.309 127.29 81.981 126.97 82.669C126.666 83.341 126.41 83.981 126.202 84.589C126.074 84.941 125.93 85.317 125.77 85.717C125.626 86.101 125.466 86.485 125.29 86.869C125.53 86.773 125.842 86.637 126.226 86.461C126.626 86.269 127.026 86.085 127.426 85.909C127.842 85.717 128.226 85.557 128.578 85.429C128.93 85.301 129.194 85.237 129.37 85.237C129.642 85.253 129.706 85.357 129.562 85.549C129.418 85.741 129.178 85.981 128.842 86.269C128.522 86.541 128.154 86.829 127.738 87.133C127.322 87.421 126.986 87.677 126.73 87.901C126.202 88.365 125.674 88.765 125.146 89.101C124.618 89.421 124.178 89.557 123.826 89.509C123.49 89.461 123.21 89.349 122.986 89.173C122.762 88.981 122.626 88.789 122.578 88.597C122.546 88.501 122.514 88.381 122.482 88.237C122.466 88.093 122.45 87.957 122.434 87.829C122.418 87.669 122.402 87.509 122.386 87.349C122.29 87.445 122.13 87.581 121.906 87.757C121.698 87.917 121.458 88.077 121.186 88.237C120.93 88.381 120.658 88.501 120.37 88.597C120.082 88.693 119.81 88.725 119.554 88.693C119.314 88.661 119.122 88.597 118.978 88.501C118.834 88.389 118.714 88.277 118.618 88.165C118.538 88.037 118.482 87.925 118.45 87.829C118.418 87.717 118.386 87.637 118.354 87.589C118.322 87.541 118.306 87.445 118.306 87.301C118.306 87.141 118.338 86.957 118.402 86.749C118.466 86.525 118.562 86.293 118.69 86.053C118.834 85.797 119.034 85.533 119.29 85.261C119.53 85.005 119.834 84.733 120.202 84.445C120.57 84.141 120.954 83.869 121.354 83.629C121.77 83.373 122.178 83.149 122.578 82.957C122.994 82.765 123.362 82.629 123.682 82.549C123.938 82.485 124.162 82.485 124.354 82.549C124.546 82.613 124.706 82.709 124.834 82.837L127.018 78.805C127.29 78.325 127.546 77.853 127.786 77.389C128.026 76.909 128.234 76.469 128.41 76.069C128.602 75.669 128.754 75.333 128.866 75.061C128.994 74.789 129.074 74.605 129.106 74.509C129.186 74.333 129.322 74.213 129.514 74.149C129.706 74.069 130.026 74.157 130.474 74.413C130.65 74.509 130.794 74.669 130.906 74.893C131.034 75.117 131.058 75.293 130.978 75.421ZM120.922 86.485C121.162 86.405 121.506 86.293 121.954 86.149C122.418 86.005 122.866 85.773 123.298 85.453L123.538 85.285L124.066 84.301L123.538 84.445C123.362 84.509 123.13 84.645 122.842 84.853C122.57 85.061 122.29 85.285 122.002 85.525C121.73 85.765 121.49 85.981 121.282 86.173C121.074 86.365 120.954 86.469 120.922 86.485Z" fill="#ADADAD"/>
<path d="M114.184 83.965C114.104 83.965 113.888 84.061 113.536 84.253C113.184 84.429 112.808 84.653 112.408 84.925C112.008 85.181 111.648 85.453 111.328 85.741C111.008 86.029 110.848 86.261 110.848 86.437C110.88 86.437 111 86.389 111.208 86.293C111.416 86.197 111.664 86.085 111.952 85.957C112.256 85.829 112.568 85.693 112.888 85.549C113.224 85.405 113.536 85.277 113.824 85.165C114.128 85.037 114.376 84.941 114.568 84.877C114.76 84.797 114.872 84.765 114.904 84.781C115.08 84.909 115.192 85.085 115.24 85.309C115.304 85.517 115.264 85.701 115.12 85.861C115.024 85.973 114.92 86.093 114.808 86.221C114.712 86.349 114.632 86.461 114.568 86.557C114.52 86.653 114.504 86.717 114.52 86.749C114.536 86.765 114.624 86.725 114.784 86.629C114.88 86.565 115.072 86.477 115.36 86.365C115.648 86.237 115.976 86.101 116.344 85.957C116.728 85.797 117.136 85.637 117.568 85.477C118.016 85.317 118.44 85.165 118.84 85.021C119.24 84.861 119.6 84.725 119.92 84.613C120.24 84.501 120.472 84.421 120.616 84.373C120.84 84.293 120.968 84.293 121 84.373C121.032 84.453 120.984 84.581 120.856 84.757C120.744 84.933 120.568 85.133 120.328 85.357C120.104 85.581 119.84 85.789 119.536 85.981C119.232 86.173 118.816 86.421 118.288 86.725C117.76 87.013 117.216 87.301 116.656 87.589C116.112 87.877 115.6 88.133 115.12 88.357C114.656 88.581 114.336 88.725 114.16 88.789C113.984 88.853 113.768 88.885 113.512 88.885C113.272 88.869 113.048 88.805 112.84 88.693C112.648 88.581 112.504 88.421 112.408 88.213C112.312 88.005 112.32 87.741 112.432 87.421C112 87.677 111.56 87.885 111.112 88.045C110.664 88.189 110.304 88.317 110.032 88.429C109.888 88.477 109.696 88.477 109.456 88.429C109.216 88.381 108.984 88.277 108.76 88.117C108.536 87.957 108.352 87.741 108.208 87.469C108.064 87.197 108.024 86.861 108.088 86.461C108.152 86.061 108.344 85.669 108.664 85.285C109 84.901 109.368 84.549 109.768 84.229C110.184 83.909 110.584 83.645 110.968 83.437C111.368 83.213 111.664 83.077 111.856 83.029C112.048 82.981 112.264 82.949 112.504 82.933C112.76 82.901 113.008 82.901 113.248 82.933C113.504 82.949 113.744 83.005 113.968 83.101C114.208 83.197 114.408 83.333 114.568 83.509C114.648 83.589 114.64 83.693 114.544 83.821C114.464 83.949 114.344 83.997 114.184 83.965Z" fill="#ADADAD"/>
<path d="M107.397 85.117C107.461 85.677 107.469 86.101 107.421 86.389C107.389 86.661 107.261 86.797 107.037 86.797C106.925 86.797 106.781 86.773 106.605 86.725C106.445 86.677 106.285 86.613 106.125 86.533C105.965 86.453 105.829 86.349 105.717 86.221C105.621 86.093 105.589 85.949 105.621 85.789C105.653 85.469 105.573 85.269 105.381 85.189C105.205 85.093 104.989 85.109 104.733 85.237C104.653 85.285 104.509 85.357 104.301 85.453C104.109 85.533 103.901 85.629 103.677 85.741C103.437 86.173 103.237 86.557 103.077 86.893C102.917 87.229 102.789 87.557 102.693 87.877C102.565 88.197 102.485 88.485 102.453 88.741C102.437 88.997 102.389 89.237 102.309 89.461C102.245 89.685 102.125 89.901 101.949 90.109C101.789 90.301 101.501 90.509 101.085 90.733C100.749 90.909 100.453 90.989 100.197 90.973C99.9409 90.973 99.7489 90.805 99.6209 90.469C99.4769 90.101 99.5009 89.605 99.6929 88.981C99.8849 88.357 100.133 87.733 100.437 87.109C100.741 86.469 101.045 85.885 101.349 85.357C101.669 84.829 101.869 84.469 101.949 84.277C102.029 84.085 102.085 83.917 102.117 83.773C102.149 83.613 102.181 83.477 102.213 83.365C102.245 83.237 102.293 83.125 102.357 83.029C102.421 82.917 102.517 82.813 102.645 82.717C103.029 82.445 103.317 82.269 103.509 82.189C103.717 82.109 103.909 82.205 104.085 82.477C104.165 82.605 104.277 82.685 104.421 82.717C104.565 82.749 104.685 82.797 104.781 82.861C104.877 82.925 104.925 83.037 104.925 83.197C104.941 83.357 104.845 83.629 104.637 84.013C105.117 83.677 105.581 83.373 106.029 83.101C106.477 82.813 106.813 82.669 107.037 82.669C107.229 82.669 107.349 82.749 107.397 82.909C107.461 83.053 107.485 83.245 107.469 83.485C107.453 83.725 107.429 83.989 107.397 84.277C107.365 84.565 107.365 84.845 107.397 85.117Z" fill="#ADADAD"/>
<path d="M103.134 75.421C103.118 75.453 103.014 75.621 102.822 75.925C102.63 76.229 102.39 76.621 102.102 77.101C101.83 77.565 101.518 78.109 101.166 78.733C100.814 79.341 100.462 79.981 100.11 80.653C99.7739 81.309 99.4459 81.981 99.1259 82.669C98.8219 83.341 98.5659 83.981 98.3579 84.589C98.2299 84.941 98.0859 85.317 97.9259 85.717C97.7819 86.101 97.6219 86.485 97.4459 86.869C97.6859 86.773 97.9979 86.637 98.3819 86.461C98.7819 86.269 99.1819 86.085 99.5819 85.909C99.9979 85.717 100.382 85.557 100.734 85.429C101.086 85.301 101.35 85.237 101.526 85.237C101.798 85.253 101.862 85.357 101.718 85.549C101.574 85.741 101.334 85.981 100.998 86.269C100.678 86.541 100.31 86.829 99.8939 87.133C99.4779 87.421 99.1419 87.677 98.8859 87.901C98.3579 88.365 97.8299 88.765 97.3019 89.101C96.7739 89.421 96.3339 89.557 95.9819 89.509C95.6459 89.461 95.3659 89.349 95.1419 89.173C94.9179 88.981 94.7819 88.789 94.7339 88.597C94.7019 88.501 94.6699 88.381 94.6379 88.237C94.6219 88.093 94.6059 87.957 94.5899 87.829C94.5739 87.669 94.5579 87.509 94.5419 87.349C94.4459 87.445 94.2859 87.581 94.0619 87.757C93.8539 87.917 93.6139 88.077 93.3419 88.237C93.0859 88.381 92.8139 88.501 92.5259 88.597C92.2379 88.693 91.9659 88.725 91.7099 88.693C91.4699 88.661 91.2779 88.597 91.1339 88.501C90.9899 88.389 90.8699 88.277 90.7739 88.165C90.6939 88.037 90.6379 87.925 90.6059 87.829C90.5739 87.717 90.5419 87.637 90.5099 87.589C90.4779 87.541 90.4619 87.445 90.4619 87.301C90.4619 87.141 90.4939 86.957 90.5579 86.749C90.6219 86.525 90.7179 86.293 90.8459 86.053C90.9899 85.797 91.1899 85.533 91.4459 85.261C91.6859 85.005 91.9899 84.733 92.3579 84.445C92.7259 84.141 93.1099 83.869 93.5099 83.629C93.9259 83.373 94.3339 83.149 94.7339 82.957C95.1499 82.765 95.5179 82.629 95.8379 82.549C96.0939 82.485 96.3179 82.485 96.5099 82.549C96.7019 82.613 96.8619 82.709 96.9899 82.837L99.1739 78.805C99.4459 78.325 99.7019 77.853 99.9419 77.389C100.182 76.909 100.39 76.469 100.566 76.069C100.758 75.669 100.91 75.333 101.022 75.061C101.15 74.789 101.23 74.605 101.262 74.509C101.342 74.333 101.478 74.213 101.67 74.149C101.862 74.069 102.182 74.157 102.63 74.413C102.806 74.509 102.95 74.669 103.062 74.893C103.19 75.117 103.214 75.293 103.134 75.421ZM93.0779 86.485C93.3179 86.405 93.6619 86.293 94.1099 86.149C94.5739 86.005 95.0219 85.773 95.4539 85.453L95.6939 85.285L96.2219 84.301L95.6939 84.445C95.5179 84.509 95.2859 84.645 94.9979 84.853C94.7259 85.061 94.4459 85.285 94.1579 85.525C93.8859 85.765 93.6459 85.981 93.4379 86.173C93.2299 86.365 93.1099 86.469 93.0779 86.485Z" fill="#ADADAD"/>
<path d="M83.0013 81.613C83.1773 81.709 83.3133 81.861 83.4093 82.069C83.5213 82.261 83.5373 82.421 83.4573 82.549C83.4253 82.597 83.3453 82.709 83.2173 82.885C83.0893 83.061 82.9293 83.325 82.7373 83.677C82.5453 84.029 82.3213 84.493 82.0653 85.069C81.8093 85.629 81.5373 86.325 81.2493 87.157C81.7293 86.805 82.2413 86.373 82.7853 85.861C83.3293 85.333 83.8573 84.829 84.3693 84.349C84.8813 83.869 85.3453 83.469 85.7613 83.149C86.1933 82.813 86.5373 82.653 86.7933 82.669C87.3053 82.701 87.6493 82.893 87.8253 83.245C88.0173 83.597 87.9773 84.077 87.7053 84.685C87.5613 85.005 87.4413 85.365 87.3453 85.765C87.2493 86.149 87.1853 86.509 87.1533 86.845C87.1213 87.181 87.1293 87.461 87.1773 87.685C87.2253 87.893 87.3293 87.973 87.4893 87.925C87.6493 87.877 87.8573 87.789 88.1133 87.661C88.3853 87.517 88.6653 87.365 88.9533 87.205C89.2573 87.029 89.5453 86.861 89.8173 86.701C90.1053 86.525 90.3453 86.373 90.5373 86.245C90.7293 86.133 90.8493 86.117 90.8973 86.197C90.9453 86.261 90.9293 86.389 90.8493 86.581C90.7693 86.773 90.6253 87.013 90.4173 87.301C90.2253 87.573 89.9613 87.861 89.6253 88.165C89.2893 88.469 88.9693 88.757 88.6653 89.029C88.3773 89.285 88.0893 89.501 87.8013 89.677C87.5293 89.853 87.2573 89.989 86.9853 90.085C86.7133 90.165 86.4253 90.181 86.1213 90.133C85.8173 90.085 85.5853 89.861 85.4253 89.461C85.2653 89.045 85.1693 88.573 85.1373 88.045C85.1053 87.501 85.1293 86.957 85.2093 86.413C85.2893 85.869 85.4253 85.437 85.6173 85.117C85.5373 85.069 85.3613 85.181 85.0893 85.453C84.8173 85.709 84.4973 86.045 84.1293 86.461C83.7773 86.877 83.3933 87.333 82.9773 87.829C82.5773 88.309 82.2013 88.741 81.8493 89.125C81.4813 89.509 81.1693 89.813 80.9133 90.037C80.6573 90.261 80.4253 90.429 80.2173 90.541C80.0253 90.653 79.8493 90.717 79.6893 90.733C79.5293 90.765 79.3693 90.773 79.2093 90.757C79.0493 90.741 78.9053 90.629 78.7773 90.421C78.6493 90.229 78.5453 90.005 78.4653 89.749C78.3853 89.477 78.3373 89.205 78.3213 88.933C78.3213 88.661 78.3693 88.453 78.4653 88.309C78.5613 88.149 78.6493 88.005 78.7293 87.877C78.8253 87.749 78.9213 87.597 79.0173 87.421C79.1293 87.245 79.2493 87.013 79.3773 86.725C79.5213 86.437 79.6813 86.061 79.8573 85.597C80.0333 85.149 80.2013 84.717 80.3613 84.301C80.5373 83.869 80.6893 83.477 80.8173 83.125C80.9453 82.773 81.0573 82.477 81.1533 82.237C81.2493 81.981 81.3133 81.813 81.3453 81.733C81.4253 81.557 81.6173 81.437 81.9213 81.373C82.2253 81.309 82.5853 81.389 83.0013 81.613Z" fill="#ADADAD"/>
<path d="M78.6721 73.477C78.9441 73.477 79.2401 73.525 79.5601 73.621C79.8961 73.701 80.1761 73.877 80.4001 74.149C80.6241 74.405 80.7601 74.773 80.8081 75.253C80.8561 75.717 80.7521 76.325 80.4961 77.077C80.2721 77.717 79.9281 78.565 79.4641 79.621C79.0001 80.677 78.4881 81.805 77.9281 83.005C78.3281 83.005 78.6401 83.045 78.8641 83.125C79.0881 83.205 79.2321 83.301 79.2961 83.413C79.3601 83.525 79.3441 83.653 79.2481 83.797C79.1521 83.925 78.9921 84.045 78.7681 84.157C78.6401 84.221 78.4401 84.285 78.1681 84.349C77.8961 84.413 77.5681 84.485 77.1841 84.565C76.8641 85.237 76.5521 85.893 76.2481 86.533C75.9441 87.157 75.6641 87.741 75.4081 88.285C75.1681 88.813 74.9441 89.285 74.7361 89.701C74.5441 90.117 74.4001 90.437 74.3041 90.661C74.0961 91.125 73.9441 91.493 73.8481 91.765C73.7521 92.053 73.6881 92.277 73.6561 92.437C73.6241 92.613 73.6081 92.749 73.6081 92.845C73.6241 92.941 73.6481 93.045 73.6801 93.157C73.6961 93.269 73.6641 93.373 73.5841 93.469C73.5201 93.565 73.4161 93.629 73.2721 93.661C73.1441 93.693 72.9841 93.677 72.7921 93.613C72.6161 93.565 72.4321 93.445 72.2401 93.253C72.0481 93.061 71.8961 92.837 71.7841 92.581C71.6881 92.325 71.6481 92.021 71.6641 91.669C71.6961 91.317 71.7921 90.909 71.9521 90.445C72.1121 89.981 72.3521 89.445 72.6721 88.837C72.8961 88.421 73.1681 87.877 73.4881 87.205C73.8241 86.533 74.1841 85.789 74.5681 84.973C74.1041 85.037 73.6481 85.101 73.2001 85.165C72.7521 85.213 72.3281 85.261 71.9281 85.309C71.5441 85.341 71.1841 85.373 70.8481 85.405C70.5281 85.437 70.2721 85.453 70.0801 85.453C69.8081 85.469 69.5441 85.469 69.2881 85.453C69.0481 85.421 68.8161 85.389 68.5921 85.357C67.6481 86.765 66.9521 87.901 66.5041 88.765C66.0721 89.613 65.7921 90.181 65.6641 90.469C65.5841 90.645 65.5281 90.829 65.4961 91.021C65.4801 91.229 65.4481 91.405 65.4001 91.549C65.3681 91.709 65.3121 91.829 65.2321 91.909C65.1681 92.005 65.0561 92.037 64.8961 92.005C64.6881 91.957 64.4721 91.869 64.2481 91.741C64.0241 91.629 63.8321 91.485 63.6721 91.309C63.5121 91.149 63.4001 90.981 63.3361 90.805C63.2561 90.629 63.2641 90.453 63.3601 90.277C64.0961 88.949 64.9041 87.605 65.7841 86.245C66.6801 84.869 67.6321 83.533 68.6401 82.237C69.6481 80.925 70.7041 79.677 71.8081 78.493C72.9121 77.293 74.0481 76.197 75.2161 75.205C75.6321 74.853 76.0001 74.565 76.3201 74.341C76.6561 74.117 76.9601 73.941 77.2321 73.813C77.5041 73.685 77.7521 73.597 77.9761 73.549C78.2161 73.501 78.4481 73.477 78.6721 73.477ZM75.3601 83.245C75.6641 82.541 75.9681 81.829 76.2721 81.109C76.5921 80.373 76.8881 79.653 77.1601 78.949C77.4481 78.245 77.7041 77.573 77.9281 76.933C78.1681 76.277 78.3681 75.685 78.5281 75.157C78.2081 75.157 77.7681 75.333 77.2081 75.685C76.6481 76.037 76.0081 76.541 75.2881 77.197C74.5681 77.853 73.7841 78.661 72.9361 79.621C72.0881 80.565 71.2241 81.637 70.3441 82.837C70.2001 83.029 70.0561 83.221 69.9121 83.413C69.7841 83.605 69.6561 83.789 69.5281 83.965C69.8641 83.933 70.2641 83.893 70.7281 83.845C71.1921 83.781 71.6801 83.717 72.1921 83.653C72.7201 83.589 73.2561 83.525 73.8001 83.461C74.3441 83.381 74.8641 83.309 75.3601 83.245Z" fill="#ADADAD"/>
<path d="M54.6434 83.269C54.7394 83.349 54.9154 83.493 55.1714 83.701C55.4274 83.909 55.6754 84.173 55.9154 84.493C56.1714 84.813 56.3714 85.181 56.5154 85.597C56.6594 86.013 56.6674 86.461 56.5394 86.941C56.4114 87.421 56.1794 87.869 55.8434 88.285C55.5074 88.685 55.1234 89.029 54.6914 89.317C54.2594 89.589 53.8034 89.789 53.3234 89.917C52.8594 90.029 52.4354 90.045 52.0514 89.965C51.6674 89.885 51.3714 89.717 51.1634 89.461C50.9554 89.205 50.8194 88.917 50.7554 88.597C50.6914 88.261 50.6994 87.933 50.7794 87.613C50.8434 87.277 50.9554 86.997 51.1154 86.773C51.2754 86.549 51.4754 86.285 51.7154 85.981C51.9554 85.661 52.2114 85.357 52.4834 85.069C52.7554 84.765 53.0194 84.509 53.2754 84.301C53.5474 84.077 53.7954 83.941 54.0194 83.893C54.0674 83.877 54.1074 83.869 54.1394 83.869C54.1874 83.853 54.2354 83.837 54.2834 83.821C54.2194 83.709 54.1314 83.613 54.0194 83.533C53.8274 83.373 53.7314 83.261 53.7314 83.197C53.7474 83.117 53.8034 83.077 53.8994 83.077C53.9954 83.061 54.1154 83.077 54.2594 83.125C54.4194 83.157 54.5474 83.205 54.6434 83.269ZM53.0834 87.637C53.0674 87.717 53.1074 87.749 53.2034 87.733C53.2994 87.717 53.4194 87.677 53.5634 87.613C53.7234 87.533 53.8834 87.429 54.0434 87.301C54.2034 87.173 54.3394 87.029 54.4514 86.869C54.5314 86.757 54.5954 86.597 54.6434 86.389C54.6914 86.181 54.7154 85.957 54.7154 85.717C54.5394 85.877 54.3554 86.053 54.1634 86.245C53.9874 86.437 53.8194 86.629 53.6594 86.821C53.4994 87.013 53.3634 87.181 53.2514 87.325C53.1554 87.469 53.0994 87.573 53.0834 87.637Z" fill="#ADADAD"/>
<path d="M45.8294 81.949C45.9894 81.917 46.1894 81.909 46.4294 81.925C46.6694 81.925 46.9014 81.957 47.1254 82.021C47.3494 82.069 47.5574 82.157 47.7494 82.285C47.9574 82.397 48.1094 82.549 48.2054 82.741C48.3974 83.109 48.4694 83.397 48.4214 83.605C48.3734 83.797 48.2454 83.885 48.0374 83.869C47.9414 83.869 47.8614 83.829 47.7974 83.749C47.7494 83.669 47.6854 83.597 47.6054 83.533C47.5254 83.469 47.4134 83.437 47.2694 83.437C47.1254 83.437 46.9254 83.517 46.6694 83.677C46.3974 83.837 46.0854 84.085 45.7334 84.421C45.3814 84.757 45.0294 85.125 44.6774 85.525C44.3414 85.925 44.0294 86.325 43.7414 86.725C43.4694 87.109 43.2854 87.429 43.1894 87.685C43.0934 87.941 43.0454 88.181 43.0454 88.405C43.0454 88.613 43.1094 88.781 43.2374 88.909C43.3654 89.037 43.5654 89.109 43.8374 89.125C44.1094 89.141 44.4614 89.077 44.8934 88.933C45.3414 88.789 45.8934 88.573 46.5494 88.285C47.2054 87.997 47.8854 87.669 48.5894 87.301C49.3094 86.917 50.0214 86.517 50.7254 86.101C51.4454 85.685 52.0934 85.277 52.6694 84.877C52.8934 84.733 53.0214 84.749 53.0534 84.925C53.0854 85.101 52.9254 85.421 52.5734 85.885C52.4614 86.045 52.1894 86.277 51.7574 86.581C51.3414 86.869 50.8374 87.197 50.2454 87.565C49.6694 87.933 49.0374 88.317 48.3494 88.717C47.6774 89.101 47.0214 89.461 46.3814 89.797C45.7574 90.117 45.1894 90.389 44.6774 90.613C44.1654 90.837 43.7814 90.965 43.5254 90.997C42.9654 91.077 42.4534 90.957 41.9894 90.637C41.5414 90.333 41.2294 89.957 41.0534 89.509C40.8774 89.061 40.7654 88.629 40.7174 88.213C40.6694 87.781 40.7814 87.301 41.0534 86.773C41.1334 86.597 41.2774 86.365 41.4854 86.077C41.7094 85.773 41.9654 85.453 42.2534 85.117C42.5414 84.765 42.8454 84.413 43.1654 84.061C43.5014 83.709 43.8294 83.389 44.1494 83.101C44.4694 82.797 44.7734 82.541 45.0614 82.333C45.3654 82.125 45.6214 81.997 45.8294 81.949Z" fill="#ADADAD"/>
<path d="M33.6888 81.613C33.8648 81.709 34.0008 81.861 34.0968 82.069C34.2088 82.261 34.2248 82.421 34.1448 82.549C34.1128 82.597 34.0328 82.709 33.9048 82.885C33.7768 83.061 33.6168 83.325 33.4248 83.677C33.2328 84.029 33.0088 84.493 32.7528 85.069C32.4968 85.629 32.2248 86.325 31.9368 87.157C32.4168 86.805 32.9288 86.373 33.4728 85.861C34.0168 85.333 34.5448 84.829 35.0568 84.349C35.5688 83.869 36.0328 83.469 36.4488 83.149C36.8808 82.813 37.2248 82.653 37.4808 82.669C37.9928 82.701 38.3368 82.893 38.5128 83.245C38.7048 83.597 38.6648 84.077 38.3928 84.685C38.2488 85.005 38.1288 85.365 38.0328 85.765C37.9368 86.149 37.8728 86.509 37.8408 86.845C37.8088 87.181 37.8168 87.461 37.8648 87.685C37.9128 87.893 38.0168 87.973 38.1768 87.925C38.3368 87.877 38.5448 87.789 38.8008 87.661C39.0728 87.517 39.3528 87.365 39.6408 87.205C39.9448 87.029 40.2328 86.861 40.5048 86.701C40.7928 86.525 41.0328 86.373 41.2248 86.245C41.4168 86.133 41.5368 86.117 41.5848 86.197C41.6328 86.261 41.6168 86.389 41.5368 86.581C41.4568 86.773 41.3128 87.013 41.1048 87.301C40.9128 87.573 40.6488 87.861 40.3128 88.165C39.9768 88.469 39.6568 88.757 39.3528 89.029C39.0648 89.285 38.7768 89.501 38.4888 89.677C38.2168 89.853 37.9448 89.989 37.6728 90.085C37.4008 90.165 37.1128 90.181 36.8088 90.133C36.5048 90.085 36.2728 89.861 36.1128 89.461C35.9528 89.045 35.8568 88.573 35.8248 88.045C35.7928 87.501 35.8168 86.957 35.8968 86.413C35.9768 85.869 36.1128 85.437 36.3048 85.117C36.2248 85.069 36.0488 85.181 35.7768 85.453C35.5048 85.709 35.1848 86.045 34.8168 86.461C34.4648 86.877 34.0808 87.333 33.6648 87.829C33.2648 88.309 32.8888 88.741 32.5368 89.125C32.1688 89.509 31.8568 89.813 31.6008 90.037C31.3448 90.261 31.1128 90.429 30.9048 90.541C30.7128 90.653 30.5368 90.717 30.3768 90.733C30.2168 90.765 30.0568 90.773 29.8968 90.757C29.7368 90.741 29.5928 90.629 29.4648 90.421C29.3368 90.229 29.2328 90.005 29.1528 89.749C29.0728 89.477 29.0248 89.205 29.0088 88.933C29.0088 88.661 29.0568 88.453 29.1528 88.309C29.2488 88.149 29.3368 88.005 29.4168 87.877C29.5128 87.749 29.6088 87.597 29.7048 87.421C29.8168 87.245 29.9368 87.013 30.0648 86.725C30.2088 86.437 30.3688 86.061 30.5448 85.597C30.7208 85.149 30.8888 84.717 31.0488 84.301C31.2248 83.869 31.3768 83.477 31.5048 83.125C31.6328 82.773 31.7448 82.477 31.8408 82.237C31.9368 81.981 32.0008 81.813 32.0328 81.733C32.1128 81.557 32.3048 81.437 32.6088 81.373C32.9128 81.309 33.2728 81.389 33.6888 81.613Z" fill="#ADADAD"/>
<path d="M24.8871 83.965C24.8071 83.965 24.5911 84.061 24.2391 84.253C23.8871 84.429 23.5111 84.653 23.1111 84.925C22.7111 85.181 22.3511 85.453 22.0311 85.741C21.7111 86.029 21.5511 86.261 21.5511 86.437C21.5831 86.437 21.7031 86.389 21.9111 86.293C22.1191 86.197 22.3671 86.085 22.6551 85.957C22.9591 85.829 23.2711 85.693 23.5911 85.549C23.9271 85.405 24.2391 85.277 24.5271 85.165C24.8311 85.037 25.0791 84.941 25.2711 84.877C25.4631 84.797 25.5751 84.765 25.6071 84.781C25.7831 84.909 25.8951 85.085 25.9431 85.309C26.0071 85.517 25.9671 85.701 25.8231 85.861C25.7271 85.973 25.6231 86.093 25.5111 86.221C25.4151 86.349 25.3351 86.461 25.2711 86.557C25.2231 86.653 25.2071 86.717 25.2231 86.749C25.2391 86.765 25.3271 86.725 25.4871 86.629C25.5831 86.565 25.7751 86.477 26.0631 86.365C26.3511 86.237 26.6791 86.101 27.0471 85.957C27.4311 85.797 27.8391 85.637 28.2711 85.477C28.7191 85.317 29.1431 85.165 29.5431 85.021C29.9431 84.861 30.3031 84.725 30.6231 84.613C30.9431 84.501 31.1751 84.421 31.3191 84.373C31.5431 84.293 31.6711 84.293 31.7031 84.373C31.7351 84.453 31.6871 84.581 31.5591 84.757C31.4471 84.933 31.2711 85.133 31.0311 85.357C30.8071 85.581 30.5431 85.789 30.2391 85.981C29.9351 86.173 29.5191 86.421 28.9911 86.725C28.4631 87.013 27.9191 87.301 27.3591 87.589C26.8151 87.877 26.3031 88.133 25.8231 88.357C25.3591 88.581 25.0391 88.725 24.8631 88.789C24.6871 88.853 24.4711 88.885 24.2151 88.885C23.9751 88.869 23.7511 88.805 23.5431 88.693C23.3511 88.581 23.2071 88.421 23.1111 88.213C23.0151 88.005 23.0231 87.741 23.1351 87.421C22.7031 87.677 22.2631 87.885 21.8151 88.045C21.3671 88.189 21.0071 88.317 20.7351 88.429C20.5911 88.477 20.3991 88.477 20.1591 88.429C19.9191 88.381 19.6871 88.277 19.4631 88.117C19.2391 87.957 19.0551 87.741 18.9111 87.469C18.7671 87.197 18.7271 86.861 18.7911 86.461C18.8551 86.061 19.0471 85.669 19.3671 85.285C19.7031 84.901 20.0711 84.549 20.4711 84.229C20.8871 83.909 21.2871 83.645 21.6711 83.437C22.0711 83.213 22.3671 83.077 22.5591 83.029C22.7511 82.981 22.9671 82.949 23.2071 82.933C23.4631 82.901 23.7111 82.901 23.9511 82.933C24.2071 82.949 24.4471 83.005 24.6711 83.101C24.9111 83.197 25.1111 83.333 25.2711 83.509C25.3511 83.589 25.3431 83.693 25.2471 83.821C25.1671 83.949 25.0471 83.997 24.8871 83.965Z" fill="#ADADAD"/>
<path d="M18.1 85.117C18.164 85.677 18.172 86.101 18.124 86.389C18.092 86.661 17.964 86.797 17.74 86.797C17.628 86.797 17.484 86.773 17.308 86.725C17.148 86.677 16.988 86.613 16.828 86.533C16.668 86.453 16.532 86.349 16.42 86.221C16.324 86.093 16.292 85.949 16.324 85.789C16.356 85.469 16.276 85.269 16.084 85.189C15.908 85.093 15.692 85.109 15.436 85.237C15.356 85.285 15.212 85.357 15.004 85.453C14.812 85.533 14.604 85.629 14.38 85.741C14.14 86.173 13.94 86.557 13.78 86.893C13.62 87.229 13.492 87.557 13.396 87.877C13.268 88.197 13.188 88.485 13.156 88.741C13.14 88.997 13.092 89.237 13.012 89.461C12.948 89.685 12.828 89.901 12.652 90.109C12.492 90.301 12.204 90.509 11.788 90.733C11.452 90.909 11.156 90.989 10.9 90.973C10.644 90.973 10.452 90.805 10.324 90.469C10.18 90.101 10.204 89.605 10.396 88.981C10.588 88.357 10.836 87.733 11.14 87.109C11.444 86.469 11.748 85.885 12.052 85.357C12.372 84.829 12.572 84.469 12.652 84.277C12.732 84.085 12.788 83.917 12.82 83.773C12.852 83.613 12.884 83.477 12.916 83.365C12.948 83.237 12.996 83.125 13.06 83.029C13.124 82.917 13.22 82.813 13.348 82.717C13.732 82.445 14.02 82.269 14.212 82.189C14.42 82.109 14.612 82.205 14.788 82.477C14.868 82.605 14.98 82.685 15.124 82.717C15.268 82.749 15.388 82.797 15.484 82.861C15.58 82.925 15.628 83.037 15.628 83.197C15.644 83.357 15.548 83.629 15.34 84.013C15.82 83.677 16.284 83.373 16.732 83.101C17.18 82.813 17.516 82.669 17.74 82.669C17.932 82.669 18.052 82.749 18.1 82.909C18.164 83.053 18.188 83.245 18.172 83.485C18.156 83.725 18.132 83.989 18.1 84.277C18.068 84.565 18.068 84.845 18.1 85.117Z" fill="#ADADAD"/>
<path d="M16.4592 70.717C16.5072 70.765 16.5552 70.901 16.6032 71.125C16.6672 71.333 16.6592 71.557 16.5792 71.797C16.5152 72.021 16.3552 72.221 16.0992 72.397C15.8432 72.573 15.4192 72.637 14.8272 72.589C14.5232 72.573 14.2192 72.621 13.9152 72.733C13.6112 72.845 13.3152 73.005 13.0272 73.213C12.7552 73.405 12.5072 73.629 12.2832 73.885C12.0752 74.141 11.9072 74.397 11.7792 74.653C11.4112 75.373 11.0192 76.125 10.6032 76.909C10.1872 77.693 9.7712 78.485 9.3552 79.285C10.0272 79.173 10.7072 79.045 11.3952 78.901C12.0832 78.741 12.8752 78.549 13.7712 78.325C13.9792 78.181 14.1632 78.221 14.3232 78.445C14.4992 78.653 14.5792 78.933 14.5632 79.285C14.5632 79.621 14.4432 79.965 14.2032 80.317C13.9632 80.669 13.5312 80.909 12.9072 81.037C12.0272 81.213 11.1952 81.325 10.4112 81.373C9.6432 81.405 8.9152 81.421 8.2272 81.421C7.9552 81.933 7.6992 82.421 7.4592 82.885C7.2352 83.349 7.0192 83.789 6.8112 84.205C6.1552 85.581 5.6192 86.741 5.2032 87.685C4.8032 88.613 4.4512 89.429 4.1472 90.133C3.8432 90.821 3.5632 91.437 3.3072 91.981C3.0512 92.525 2.7472 93.085 2.3952 93.661C2.2832 93.837 2.1472 93.981 1.9872 94.093C1.8592 94.365 1.7392 94.605 1.6272 94.813C1.4032 95.101 1.2032 95.333 1.0272 95.509C0.8672 95.685 0.7232 95.765 0.5952 95.749C0.4192 95.733 0.2832 95.613 0.1872 95.389C0.0912 95.165 0.0352 94.909 0.0192 94.621C-0.0128 94.333 -0.00480003 94.037 0.0431999 93.733C0.0752 93.445 0.1392 93.213 0.2352 93.037C0.2992 92.925 0.4352 92.613 0.6432 92.101C0.8512 91.605 1.0992 90.989 1.3872 90.253C1.6912 89.517 2.0352 88.717 2.4192 87.853C2.8032 86.973 3.2032 86.109 3.6192 85.261C3.7152 85.037 3.8032 84.837 3.8832 84.661C3.9792 84.469 4.0752 84.293 4.1712 84.133C4.2032 84.069 4.2192 84.037 4.2192 84.037C4.4752 83.525 4.7152 83.053 4.9392 82.621C5.1632 82.173 5.3632 81.781 5.5392 81.445C5.4912 81.445 5.4432 81.453 5.3952 81.469C5.3472 81.469 5.2992 81.469 5.2512 81.469C4.2272 81.549 3.4512 81.613 2.9232 81.661C2.3952 81.693 1.9952 81.741 1.7232 81.805C1.4992 81.837 1.3072 81.757 1.1472 81.565C0.9872 81.357 0.9792 81.093 1.1232 80.773C1.2352 80.533 1.3712 80.333 1.5312 80.173C1.7072 80.013 1.9392 79.893 2.2272 79.813C2.5152 79.733 2.8832 79.677 3.3312 79.645C3.7792 79.613 4.3472 79.597 5.0352 79.597C5.2752 79.597 5.5072 79.597 5.7312 79.597C5.9552 79.597 6.1712 79.589 6.3792 79.573C6.7792 78.565 7.1152 77.637 7.3872 76.789C7.6592 75.925 7.8112 75.237 7.8432 74.725C7.8592 74.373 7.9472 73.973 8.1072 73.525C8.2832 73.061 8.5072 72.605 8.7792 72.157C9.0512 71.709 9.3632 71.301 9.7152 70.933C10.0672 70.565 10.4272 70.285 10.7952 70.093C11.7072 69.629 12.4832 69.373 13.1232 69.325C13.7792 69.277 14.3312 69.333 14.7792 69.493C15.2272 69.637 15.5792 69.845 15.8352 70.117C16.1072 70.373 16.3152 70.573 16.4592 70.717Z" fill="#ADADAD"/>
</svg>
